<?xml version="1.0" standalone="no"?>
<!DOCTYPE svg PUBLIC "-//W3C//DTD SVG 20010904//EN"
 "http://www.w3.org/TR/2001/REC-SVG-20010904/DTD/svg10.dtd">
<svg version="1.0" xmlns="http://www.w3.org/2000/svg"
 width="473.000000pt" height="442.000000pt" viewBox="0 0 473.000000 442.000000"
 preserveAspectRatio="xMidYMid meet">

<g transform="translate(0.000000,442.000000) scale(0.100000,-0.100000)"
fill="#000000" stroke="none">
<path d="M3434 4180 c-146 -20 -316 -152 -387 -301 -75 -157 -104 -304 -93
-469 7 -122 30 -205 84 -312 2 -5 -13 -8 -33 -8 -143 0 -360 -93 -485 -208
-41 -38 -99 -103 -129 -145 l-54 -75 -47 71 c-72 111 -197 223 -311 279 -119
58 -209 81 -326 82 -51 1 -93 2 -93 4 0 1 6 13 14 25 37 57 43 211 16 457 -5
47 -17 168 -26 270 -9 102 -22 199 -29 217 -33 78 -149 42 -130 -40 9 -38 44
-386 56 -564 9 -133 9 -188 0 -243 -20 -122 -28 -134 -124 -178 -113 -53 -181
-98 -250 -166 -47 -48 -57 -55 -57 -37 0 42 -31 81 -105 131 -81 54 -112 90
-147 166 -34 74 -31 257 10 576 46 355 43 398 -26 398 -68 -1 -71 -11 -122
-495 -49 -465 -17 -582 203 -744 98 -72 115 -147 68 -303 -40 -134 -51 -208
-51 -344 0 -130 18 -236 61 -360 l31 -89 -7 -545 c-5 -386 -4 -557 4 -586 13
-47 66 -113 117 -145 50 -30 152 -31 209 -2 51 27 89 67 112 118 15 33 18 80
23 278 l5 239 60 -53 c180 -158 407 -324 669 -488 119 -75 169 -101 193 -101
77 0 595 342 814 537 30 26 64 56 75 66 l22 18 -6 -213 c-4 -179 -2 -222 11
-269 55 -187 317 -215 422 -44 l30 49 0 550 c0 550 0 551 22 597 13 26 35 95
50 155 25 98 27 127 27 289 1 194 -7 244 -65 418 -45 139 -39 176 40 226 64
42 158 142 194 209 100 185 121 453 52 659 -104 309 -329 477 -591 443z m220
-169 c169 -83 278 -293 279 -536 0 -237 -75 -393 -248 -515 -46 -32 -66 -59
-79 -102 -4 -13 -19 -3 -68 45 -71 70 -186 135 -285 163 l-62 17 -40 81 c-54
111 -66 170 -65 311 1 137 17 211 69 321 56 116 144 200 253 241 62 23 170 12
246 -26z m-1790 -1090 c150 -60 285 -182 372 -331 49 -85 65 -100 111 -100 40
0 52 12 109 109 126 215 325 343 559 357 118 8 215 -13 324 -68 226 -114 344
-340 345 -663 0 -180 -32 -314 -116 -494 -101 -212 -336 -484 -599 -693 -191
-152 -499 -355 -597 -393 l-42 -17 -132 78 c-222 132 -492 330 -668 488 -253
229 -431 498 -507 770 -34 125 -43 335 -18 457 47 233 161 393 340 479 101 48
164 60 310 57 120 -3 136 -6 209 -36z m-741 -1461 c26 -38 72 -99 102 -135
l55 -64 0 -281 c0 -310 -4 -336 -59 -364 -40 -21 -69 -20 -107 3 -55 33 -58
58 -51 421 4 179 7 362 7 408 0 45 2 82 4 82 1 0 24 -31 49 -70z m2462 -363
c0 -397 -1 -413 -20 -447 -29 -50 -87 -69 -135 -46 -64 30 -65 32 -68 343 l-3
281 66 74 c36 40 87 103 112 141 26 37 47 67 47 67 1 0 1 -186 1 -413z"/>
<path d="M1633 2769 c-117 -15 -245 -104 -297 -208 -43 -84 -27 -166 32 -159
22 2 33 15 58 63 77 150 215 209 373 161 67 -20 76 -20 95 0 23 22 20 70 -6
93 -43 41 -157 63 -255 50z"/>
<path d="M2900 2767 c-111 -25 -162 -78 -126 -131 20 -31 43 -33 119 -6 31 11
74 20 96 20 97 0 216 -76 262 -167 35 -70 48 -83 84 -83 43 0 59 21 52 69 -8
63 -37 112 -111 187 -53 53 -85 76 -126 91 -72 27 -180 35 -250 20z"/>
<path d="M1638 2446 c-90 -24 -150 -81 -200 -191 -22 -48 -23 -60 -23 -305 0
-250 -1 -256 -22 -284 -27 -34 -29 -53 -7 -84 27 -39 59 -28 132 46 78 79 131
102 233 102 55 0 77 -6 128 -32 52 -27 64 -30 86 -20 14 7 30 24 37 39 16 40
22 335 9 434 -30 229 -180 347 -373 295z m162 -124 c31 -15 80 -72 80 -93 0
-4 -21 -6 -48 -2 -122 14 -203 -94 -154 -208 20 -48 20 -50 2 -100 -24 -65
-35 -78 -89 -102 -36 -16 -45 -17 -52 -6 -5 8 -9 87 -9 176 0 138 3 170 20
216 21 55 67 109 110 126 39 15 102 13 140 -7z"/>
<path d="M2856 2444 c-70 -22 -156 -110 -179 -184 -30 -91 -37 -193 -28 -377
12 -240 20 -250 154 -192 159 70 329 37 396 -77 23 -39 58 -45 84 -16 23 25
21 46 -9 97 -25 43 -25 47 -15 132 26 209 4 391 -58 493 -20 33 -52 71 -71 85
-71 52 -179 68 -274 39z m182 -118 c34 -18 65 -51 86 -93 18 -36 14 -39 -24
-18 -37 21 -107 19 -145 -5 -58 -36 -76 -120 -41 -193 16 -33 17 -43 6 -83 -7
-26 -24 -59 -38 -76 -27 -31 -91 -63 -103 -51 -4 5 -11 76 -15 158 -8 168 5
240 52 303 49 64 156 92 222 58z"/>
<path d="M2173 1840 c-48 -20 -57 -90 -19 -154 63 -107 205 -139 308 -68 85
59 118 153 68 194 -31 25 -54 22 -93 -12 -72 -63 -132 -59 -189 11 -33 41 -39
43 -75 29z"/>
<path d="M1773 1558 c-6 -7 -20 -34 -32 -59 -21 -45 -48 -65 -118 -84 -29 -8
-37 -38 -21 -72 17 -36 53 -41 109 -14 l42 21 36 -36 c92 -92 291 -197 456
-239 95 -25 273 -26 380 -1 235 53 425 223 425 381 0 63 -21 97 -58 93 -25 -3
-28 -8 -36 -60 -4 -32 -12 -58 -16 -58 -4 0 -13 13 -20 29 -17 42 -66 88 -107
102 -21 6 -63 9 -99 6 -105 -8 -165 -55 -256 -197 -76 -118 -131 -155 -233
-154 -63 0 -80 5 -166 46 -67 33 -116 66 -164 110 -61 58 -67 66 -57 85 17 31
15 79 -4 97 -19 19 -48 21 -61 4z m1006 -102 c81 -42 82 -151 1 -214 -33 -26
-91 -55 -97 -49 -2 3 2 25 10 49 10 29 12 49 6 61 -14 25 -38 9 -79 -52 -41
-60 -79 -81 -150 -81 l-51 0 49 48 c28 27 70 80 95 118 81 126 141 159 216
120z"/>
<path d="M1060 4090 c-20 -20 -21 -30 -18 -391 l3 -371 24 -19 c31 -26 57 -24
86 6 l25 24 0 359 c0 348 -1 360 -21 386 -25 32 -70 35 -99 6z"/>
<path d="M4212 2538 c-6 -6 -12 -22 -12 -34 0 -32 -25 -97 -55 -143 -29 -44
-107 -101 -136 -101 -10 0 -26 -11 -34 -24 -23 -35 -6 -61 55 -87 53 -23 133
-101 150 -145 6 -15 15 -47 21 -72 12 -56 24 -72 54 -72 27 0 41 15 51 55 14
58 55 140 87 173 18 19 54 45 80 58 83 43 78 83 -15 132 -78 40 -115 87 -148
190 -23 72 -27 77 -55 80 -17 2 -36 -3 -43 -10z m121 -351 c-14 -11 -38 -37
-53 -59 l-28 -38 -15 24 c-18 27 -37 47 -73 75 l-26 20 36 32 c20 17 44 44 53
59 l16 28 58 -61 58 -60 -26 -20z"/>
<path d="M534 1802 c-6 -4 -21 -38 -34 -75 -31 -96 -72 -145 -153 -185 -60
-30 -67 -37 -67 -63 0 -27 6 -33 58 -55 96 -43 147 -105 173 -210 12 -51 34
-84 54 -84 19 0 42 32 50 70 11 54 59 141 97 177 18 17 55 41 81 53 41 20 48
26 45 49 -2 17 -13 31 -33 40 -109 55 -153 105 -185 210 -12 36 -26 69 -33 73
-15 10 -39 10 -53 0z m51 -238 c10 -19 32 -47 49 -60 l29 -25 -45 -47 c-25
-26 -47 -53 -50 -61 -2 -8 -14 3 -31 28 -15 22 -39 48 -54 58 -16 9 -30 18
-32 19 -2 2 13 17 33 35 20 17 44 44 53 60 10 16 20 29 23 29 3 0 14 -16 25
-36z"/>
</g>
</svg>
